<svg width="247" height="247" viewBox="0 0 247 247" fill="none" xmlns="http://www.w3.org/2000/svg">
<path d="M120.328 13V3.54545H124.058C124.772 3.54545 125.381 3.67318 125.886 3.92862C126.394 4.18099 126.78 4.53954 127.045 5.00426C127.312 5.46591 127.446 6.00911 127.446 6.63388C127.446 7.26172 127.311 7.80185 127.04 8.25426C126.769 8.7036 126.377 9.0483 125.863 9.28835C125.352 9.52841 124.733 9.64844 124.007 9.64844H121.509V8.0419H123.684C124.065 8.0419 124.382 7.98958 124.635 7.88494C124.887 7.7803 125.075 7.62334 125.198 7.41406C125.324 7.20478 125.387 6.94472 125.387 6.63388C125.387 6.31996 125.324 6.05528 125.198 5.83984C125.075 5.62441 124.886 5.46129 124.63 5.3505C124.378 5.23662 124.059 5.17969 123.675 5.17969H122.327V13H120.328ZM125.433 8.69744L127.783 13H125.577L123.278 8.69744H125.433Z" fill="#722F37"/>
<path d="M133.018 13.3911L130.887 13.1672L135.121 4.10558L137.683 4.37483L139.936 14.1183L137.806 13.8944L136.213 6.39274L136.14 6.38502L133.018 13.3911ZM133.273 9.68117L138.305 10.21L138.142 11.7619L133.11 11.233L133.273 9.68117Z" fill="#722F37"/>
<path d="M152.582 7.0467L150.616 16.2946L148.928 15.9357L146.141 9.25984L146.074 9.24544L144.836 15.066L142.881 14.6504L144.847 5.4025L146.563 5.76724L149.318 12.4318L149.4 12.4491L150.636 6.63301L152.582 7.0467Z" fill="#722F37"/>
<path d="M161.354 9.67032L158.432 18.6621L156.531 18.0444L159.453 9.05262L161.354 9.67032Z" fill="#722F37"/>
<path d="M179.431 17.2772L181.566 18.5098L180.645 25.3129L180.741 25.3683L186.172 21.1689L188.307 22.4015L183.579 30.5894L181.9 29.6199L184.977 24.2906L184.909 24.2514L179.736 28.3173L178.593 27.6572L179.539 21.1245L179.471 21.0852L176.383 26.4346L174.704 25.4651L179.431 17.2772Z" fill="#722F37"/>
<path d="M194.883 32.93C194.277 33.7641 193.603 34.3589 192.862 34.7143C192.123 35.0715 191.37 35.2072 190.603 35.1216C189.84 35.0353 189.121 34.7471 188.447 34.2568C187.767 33.763 187.269 33.1654 186.953 32.4641C186.637 31.7628 186.535 31.0056 186.646 30.1926C186.758 29.3795 187.115 28.5572 187.72 27.7256C188.326 26.8915 188.998 26.2958 189.737 25.9386C190.476 25.5814 191.226 25.446 191.989 25.5323C192.754 25.6161 193.476 25.9049 194.156 26.3988C194.831 26.889 195.326 27.4848 195.642 28.1861C195.962 28.8867 196.067 29.6435 195.955 30.4566C195.846 31.2714 195.489 32.0959 194.883 32.93ZM193.243 31.7388C193.636 31.1985 193.886 30.6841 193.994 30.1955C194.104 29.7087 194.083 29.2637 193.931 28.8603C193.779 28.4569 193.507 28.1132 193.117 27.8292C192.726 27.5452 192.315 27.3932 191.884 27.3733C191.454 27.3534 191.023 27.4701 190.591 27.7235C190.162 27.9787 189.752 28.3765 189.359 28.9168C188.967 29.4571 188.715 29.9706 188.605 30.4574C188.497 30.946 188.519 31.3919 188.671 31.7953C188.824 32.1987 189.095 32.5424 189.486 32.8264C189.877 33.1104 190.288 33.2624 190.718 33.2823C191.149 33.3022 191.579 33.1846 192.007 32.9294C192.439 32.676 192.851 32.2791 193.243 31.7388Z" fill="#722F37"/>
<path d="M197.202 41.1633L194.711 38.9207L201.037 31.8946L203.548 34.1558C204.255 34.7921 204.737 35.4805 204.994 36.2211C205.252 36.9594 205.283 37.7139 205.086 38.4848C204.891 39.2577 204.465 40.009 203.808 40.7386C203.149 41.4705 202.445 41.9749 201.694 42.2517C200.946 42.5307 200.188 42.5791 199.42 42.3971C198.655 42.2171 197.915 41.8058 197.202 41.1633ZM197.342 38.9855L198.286 39.8349C198.725 40.2303 199.164 40.4852 199.604 40.5994C200.048 40.7134 200.494 40.6737 200.941 40.4803C201.393 40.2866 201.855 39.9279 202.326 39.4042C202.794 38.885 203.099 38.3917 203.243 37.9244C203.388 37.4591 203.381 37.0139 203.222 36.5886C203.062 36.1633 202.763 35.7529 202.323 35.3575L201.377 34.5049L197.342 38.9855Z" fill="#722F37"/>
<path d="M203.495 47.199L210.522 40.8727L214.784 45.6071L213.56 46.7099L210.634 43.461L208.96 44.9684L211.666 47.9737L210.441 49.0765L207.735 46.0712L206.058 47.5817L208.995 50.8443L207.771 51.9471L203.495 47.199Z" fill="#722F37"/>
<path d="M218.674 68.4325C219.115 68.0683 219.514 67.5473 219.873 66.8695C220.24 66.1874 220.479 65.3791 220.59 64.4444C220.705 63.5173 220.644 62.692 220.406 61.9685L220.879 61.6955C221.398 62.2468 222.029 62.6982 222.772 63.0496C223.527 63.4042 224.308 63.6136 225.116 63.6777C225.943 63.7407 226.678 63.6616 227.321 63.4405L227.594 63.9134C227.257 64.1976 226.949 64.5558 226.668 64.9882C226.395 65.4161 226.169 65.8918 225.991 66.415C225.824 66.9414 225.713 67.4858 225.658 68.0483C225.58 68.8839 225.651 69.6484 225.871 70.3419L225.398 70.6149C225.077 70.2497 224.662 69.9194 224.151 69.6239C223.644 69.3359 223.106 69.1061 222.537 68.9345C221.975 68.7586 221.433 68.661 220.912 68.6418C220.145 68.6141 219.49 68.7019 218.947 68.9054L218.674 68.4325Z" fill="#722F37"/>
<path d="M227.613 86.3309L236.605 83.4093L237.757 86.9569C237.978 87.636 238.045 88.255 237.958 88.8139C237.875 89.3749 237.653 89.853 237.293 90.2484C236.937 90.6457 236.461 90.9409 235.867 91.1339C235.27 91.3279 234.714 91.366 234.201 91.2483C233.689 91.1295 233.24 90.8629 232.853 90.4482C232.467 90.0365 232.162 89.4853 231.937 88.7945L231.166 86.4192L232.693 85.9228L233.365 87.9907C233.483 88.3537 233.631 88.639 233.809 88.8467C233.986 89.0544 234.193 89.1844 234.43 89.2368C234.668 89.2922 234.935 89.2718 235.231 89.1757C235.529 89.0787 235.762 88.9369 235.928 88.7504C236.094 88.5667 236.191 88.3363 236.218 88.0591C236.248 87.7839 236.204 87.4634 236.085 87.0975L235.668 85.8154L228.231 88.232L227.613 86.3309ZM233.283 89.8573L229.917 93.4217L229.235 91.323L232.616 87.8069L233.283 89.8573Z" fill="#722F37"/>
<path d="M231.164 98.5216L230.719 96.4263L240.645 97.6531L241.181 100.173L232.61 105.327L232.165 103.231L238.807 99.3983L238.792 99.3261L231.164 98.5216ZM234.771 97.618L235.823 102.567L234.297 102.891L233.245 97.9424L234.771 97.618Z" fill="#722F37"/>
<path d="M243.243 115.168L233.84 116.156L233.66 114.439L239.148 109.726L239.141 109.657L233.222 110.279L233.014 108.291L242.416 107.303L242.6 109.048L237.113 113.728L237.121 113.81L243.035 113.189L243.243 115.168Z" fill="#722F37"/>
<path d="M243.458 124.321H234.004V122.322H243.458V124.321Z" fill="#722F37"/>
<path d="M241.81 143.863L241.298 146.274L234.543 147.5L234.52 147.608L240.192 151.476L239.68 153.887L230.432 151.921L230.835 150.025L236.854 151.304L236.87 151.228L231.405 147.564L231.679 146.273L238.185 145.154L238.201 145.078L232.159 143.793L232.562 141.897L241.81 143.863Z" fill="#722F37"/>
<path d="M231.697 163.396C230.717 163.078 229.943 162.621 229.376 162.026C228.808 161.433 228.446 160.759 228.29 160.003C228.137 159.251 228.189 158.478 228.447 157.685C228.706 156.886 229.121 156.228 229.69 155.711C230.259 155.193 230.948 154.862 231.756 154.717C232.563 154.571 233.456 154.658 234.433 154.975C235.414 155.294 236.188 155.749 236.756 156.342C237.324 156.934 237.685 157.606 237.839 158.358C237.995 159.111 237.944 159.887 237.684 160.687C237.427 161.48 237.013 162.135 236.444 162.652C235.876 163.173 235.189 163.507 234.381 163.652C233.572 163.8 232.678 163.715 231.697 163.396ZM232.324 161.469C232.959 161.675 233.525 161.754 234.023 161.706C234.52 161.66 234.937 161.503 235.274 161.233C235.61 160.964 235.853 160.6 236.003 160.14C236.152 159.681 236.17 159.243 236.055 158.827C235.941 158.412 235.697 158.038 235.323 157.706C234.948 157.377 234.442 157.109 233.807 156.903C233.172 156.696 232.606 156.616 232.109 156.662C231.611 156.71 231.194 156.869 230.857 157.138C230.52 157.407 230.277 157.772 230.128 158.231C229.979 158.691 229.961 159.129 230.075 159.544C230.189 159.96 230.434 160.332 230.809 160.661C231.184 160.993 231.688 161.262 232.324 161.469Z" fill="#722F37"/>
<path d="M224.583 168.147L225.946 165.085L234.583 168.931L233.209 172.018C232.822 172.887 232.316 173.557 231.691 174.03C231.069 174.505 230.361 174.767 229.567 174.818C228.771 174.872 227.925 174.699 227.028 174.299C226.129 173.899 225.431 173.384 224.936 172.756C224.439 172.131 224.159 171.425 224.095 170.638C224.03 169.855 224.192 169.024 224.583 168.147ZM226.698 167.608L226.181 168.768C225.941 169.308 225.834 169.804 225.861 170.258C225.89 170.715 226.066 171.127 226.388 171.493C226.712 171.862 227.196 172.191 227.839 172.477C228.478 172.762 229.041 172.9 229.53 172.891C230.017 172.886 230.439 172.742 230.794 172.459C231.149 172.176 231.447 171.764 231.687 171.224L232.205 170.06L226.698 167.608Z" fill="#722F37"/>
<path d="M220.789 175.998L228.977 180.725L225.791 186.242L224.364 185.418L226.55 181.632L224.599 180.506L222.577 184.008L221.15 183.184L223.172 179.682L221.217 178.553L219.021 182.355L217.594 181.531L220.789 175.998Z" fill="#722F37"/>
<path d="M205.286 196.997C205.769 197.303 206.388 197.522 207.143 197.654C207.905 197.793 208.748 197.77 209.671 197.586C210.589 197.409 211.355 197.096 211.969 196.647L212.375 197.012C212.011 197.676 211.776 198.415 211.672 199.231C211.568 200.058 211.61 200.866 211.799 201.654C211.995 202.46 212.297 203.134 212.706 203.678L212.341 204.083C211.966 203.851 211.53 203.669 211.032 203.535C210.541 203.408 210.019 203.34 209.466 203.332C208.914 203.336 208.362 203.399 207.81 203.52C206.991 203.704 206.286 204.008 205.694 204.432L205.289 204.066C205.537 203.648 205.722 203.151 205.845 202.574C205.963 202.003 206.015 201.42 206.002 200.826C205.996 200.237 205.921 199.691 205.779 199.19C205.568 198.452 205.282 197.856 204.921 197.403L205.286 196.997Z" fill="#722F37"/>
<path d="M191.025 211.027L196.582 218.676L193.565 220.869C192.987 221.288 192.419 221.543 191.86 221.633C191.301 221.728 190.778 221.665 190.291 221.444C189.803 221.228 189.375 220.867 189.008 220.362C188.639 219.854 188.431 219.337 188.384 218.812C188.339 218.289 188.454 217.78 188.729 217.284C189.001 216.789 189.431 216.328 190.018 215.901L192.039 214.433L192.983 215.733L191.224 217.011C190.915 217.236 190.69 217.464 190.547 217.697C190.404 217.93 190.345 218.167 190.368 218.409C190.389 218.653 190.491 218.9 190.674 219.152C190.858 219.406 191.065 219.583 191.293 219.683C191.52 219.785 191.769 219.805 192.04 219.745C192.312 219.689 192.603 219.547 192.914 219.321L194.005 218.529L189.408 212.202L191.025 211.027ZM189.423 217.509L184.993 215.41L186.779 214.113L191.167 216.242L189.423 217.509Z" fill="#722F37"/>
<path d="M180.528 218.172L182.384 217.101L184.284 226.921L182.053 228.209L174.503 221.651L176.359 220.58L182.057 225.713L182.12 225.676L180.528 218.172ZM182.503 221.324L178.121 223.854L177.341 222.502L181.722 219.973L182.503 221.324Z" fill="#722F37"/>
<path d="M168.43 234.806L164.584 226.169L166.161 225.467L172.339 229.23L172.403 229.201L169.982 223.765L171.808 222.952L175.654 231.589L174.051 232.303L167.905 228.531L167.829 228.565L170.247 233.997L168.43 234.806Z" fill="#722F37"/>
<path d="M159.791 237.838L156.87 228.846L158.771 228.228L161.692 237.22L159.791 237.838Z" fill="#722F37"/>
<path d="M140.695 242.309L138.243 242.567L134.99 236.521L134.88 236.533L132.954 243.122L130.503 243.38L129.514 233.977L131.443 233.775L132.086 239.895L132.164 239.887L133.959 233.557L135.272 233.419L138.346 239.26L138.424 239.252L137.778 233.109L139.707 232.906L140.695 242.309Z" fill="#722F37"/>
<path d="M118.994 238.728C118.994 237.697 119.189 236.82 119.58 236.097C119.968 235.374 120.497 234.821 121.168 234.44C121.836 234.061 122.587 233.872 123.421 233.872C124.261 233.872 125.015 234.063 125.683 234.444C126.351 234.826 126.879 235.378 127.267 236.101C127.654 236.825 127.848 237.7 127.848 238.728C127.848 239.759 127.654 240.636 127.267 241.36C126.879 242.083 126.351 242.634 125.683 243.012C125.015 243.394 124.261 243.585 123.421 243.585C122.587 243.585 121.836 243.394 121.168 243.012C120.497 242.634 119.968 242.083 119.58 241.36C119.189 240.636 118.994 239.759 118.994 238.728ZM121.021 238.728C121.021 239.396 121.121 239.959 121.321 240.418C121.518 240.876 121.796 241.224 122.156 241.461C122.516 241.698 122.938 241.817 123.421 241.817C123.904 241.817 124.326 241.698 124.686 241.461C125.046 241.224 125.326 240.876 125.526 240.418C125.723 239.959 125.822 239.396 125.822 238.728C125.822 238.06 125.723 237.497 125.526 237.039C125.326 236.58 125.046 236.232 124.686 235.995C124.326 235.758 123.904 235.64 123.421 235.64C122.938 235.64 122.516 235.758 122.156 235.995C121.796 236.232 121.518 236.58 121.321 237.039C121.121 237.497 121.021 238.06 121.021 238.728Z" fill="#722F37"/>
<path d="M112.278 233.43L115.611 233.78L114.623 243.183L111.262 242.83C110.316 242.73 109.522 242.457 108.879 242.008C108.235 241.563 107.767 240.971 107.473 240.231C107.177 239.491 107.08 238.633 107.182 237.657C107.285 236.678 107.559 235.855 108.003 235.19C108.444 234.525 109.029 234.04 109.758 233.736C110.483 233.432 111.323 233.33 112.278 233.43ZM113.444 235.275L112.181 235.142C111.594 235.08 111.088 235.132 110.666 235.298C110.239 235.467 109.902 235.761 109.654 236.181C109.402 236.603 109.239 237.165 109.166 237.865C109.093 238.56 109.136 239.139 109.294 239.601C109.45 240.063 109.717 240.419 110.096 240.669C110.476 240.92 110.959 241.076 111.547 241.138L112.814 241.271L113.444 235.275Z" fill="#722F37"/>
<path d="M103.638 232.246L101.673 241.494L95.4411 240.169L95.7838 238.557L100.06 239.466L100.528 237.263L96.5728 236.422L96.9155 234.81L100.871 235.651L101.34 233.443L97.0461 232.53L97.3888 230.918L103.638 232.246Z" fill="#722F37"/>
<path d="M78.877 223.992C78.7349 224.546 78.7178 225.202 78.8255 225.962C78.9297 226.729 79.2117 227.523 79.6714 228.345C80.1231 229.162 80.6577 229.794 81.2752 230.24L81.0531 230.739C80.3096 230.597 79.5339 230.603 78.726 230.756C77.9067 230.913 77.1515 231.202 76.4604 231.625C75.7544 232.06 75.2063 232.556 74.8161 233.113L74.3173 232.891C74.4223 232.463 74.4613 231.992 74.4344 231.477C74.4039 230.971 74.307 230.453 74.1437 229.925C73.9689 229.401 73.7387 228.896 73.453 228.408C73.025 227.686 72.5181 227.109 71.9323 226.678L72.1544 226.179C72.6286 226.286 73.1592 226.309 73.7462 226.247C74.3252 226.183 74.8955 226.052 75.4571 225.856C76.0151 225.669 76.5107 225.429 76.9438 225.138C77.5803 224.71 78.0584 224.254 78.3782 223.77L78.877 223.992Z" fill="#722F37"/>
<path d="M61.1258 214.766L55.5686 222.415L52.5508 220.223C51.9732 219.803 51.5553 219.342 51.2971 218.838C51.0346 218.336 50.9329 217.818 50.9919 217.287C51.0466 216.756 51.2576 216.238 51.6248 215.732C51.9939 215.225 52.4209 214.867 52.9059 214.66C53.3891 214.456 53.9092 214.408 54.4661 214.516C55.0205 214.622 55.5916 214.888 56.1792 215.315L58.1997 216.783L57.2554 218.083L55.4963 216.805C55.1876 216.581 54.9004 216.437 54.6347 216.373C54.369 216.309 54.1249 216.326 53.9023 216.423C53.6772 216.518 53.4733 216.691 53.2905 216.943C53.106 217.197 53.0015 217.448 52.977 217.696C52.9499 217.943 53.0072 218.186 53.1487 218.426C53.2859 218.666 53.5102 218.9 53.8214 219.126L54.912 219.918L59.5086 213.591L61.1258 214.766ZM54.4661 215.246L55.0941 210.384L56.8793 211.681L56.2103 216.513L54.4661 215.246Z" fill="#722F37"/>
<path d="M51.0879 206.994L52.6798 208.427L43.9279 213.269L42.0136 211.546L45.9178 202.339L47.5097 203.772L44.389 210.777L44.4439 210.827L51.0879 206.994ZM48.7007 209.845L44.9407 206.459L45.9848 205.3L49.7448 208.685L48.7007 209.845Z" fill="#722F37"/>
<path d="M31.5288 200.625L38.5549 194.299L39.7102 195.582L38.0403 202.621L38.0867 202.672L42.5089 198.691L43.8464 200.176L36.8203 206.502L35.6465 205.199L37.3345 198.187L37.2789 198.125L32.8602 202.104L31.5288 200.625Z" fill="#722F37"/>
<path d="M25.976 193.348L33.6249 187.791L34.7999 189.408L27.151 194.965L25.976 193.348Z" fill="#722F37"/>
<path d="M15.8217 176.567L14.819 174.315L19.5631 169.353L19.518 169.251L12.6559 169.457L11.6532 167.204L20.2904 163.359L21.079 165.13L15.4573 167.633L15.4892 167.705L22.0639 167.456L22.601 168.662L17.9955 173.391L18.0274 173.463L23.6702 170.95L24.4589 172.721L15.8217 176.567Z" fill="#722F37"/>
<path d="M12.5219 154.823C13.5024 154.504 14.397 154.419 15.2057 154.567C16.0133 154.713 16.7023 155.045 17.2726 155.566C17.839 156.084 18.2511 156.739 18.5088 157.533C18.7684 158.332 18.82 159.108 18.6634 159.861C18.5068 160.614 18.1445 161.287 17.5765 161.879C17.0085 162.471 16.2357 162.926 15.258 163.244C14.2775 163.563 13.3834 163.649 12.5757 163.504C11.768 163.359 11.081 163.027 10.5146 162.509C9.94524 161.991 9.53076 161.333 9.27112 160.534C9.01339 159.741 8.96281 158.968 9.11938 158.215C9.27208 157.46 9.63244 156.786 10.2005 156.194C10.7675 155.598 11.5413 155.142 12.5219 154.823ZM13.1481 156.75C12.513 156.957 12.0082 157.226 11.6339 157.558C11.2587 157.887 11.014 158.259 10.8999 158.675C10.7858 159.091 10.8034 159.528 10.9527 159.988C11.102 160.447 11.345 160.812 11.6816 161.081C12.0183 161.35 12.4356 161.509 12.9335 161.558C13.4305 161.603 13.9966 161.523 14.6318 161.317C15.2669 161.11 15.7722 160.842 16.1474 160.513C16.5217 160.181 16.7659 159.808 16.88 159.392C16.9941 158.976 16.9765 158.539 16.8272 158.079C16.6779 157.62 16.4349 157.255 16.0983 156.986C15.7616 156.717 15.3448 156.559 14.8478 156.514C14.3499 156.465 13.7833 156.544 13.1481 156.75Z" fill="#722F37"/>
<path d="M15.484 146.8L16.1808 150.078L6.93287 152.044L6.23026 148.739C6.03254 147.808 6.04747 146.968 6.27505 146.218C6.49962 145.469 6.9182 144.84 7.5308 144.333C8.14275 143.822 8.92889 143.464 9.8892 143.26C10.8525 143.055 11.7191 143.062 12.4889 143.279C13.2581 143.493 13.8998 143.899 14.4141 144.498C14.9277 145.093 15.2843 145.861 15.484 146.8ZM14.0899 148.479L13.8259 147.237C13.7031 146.659 13.4974 146.195 13.2089 145.844C12.9167 145.491 12.5327 145.261 12.057 145.154C11.5776 145.046 10.9932 145.064 10.3039 145.211C9.62049 145.356 9.0835 145.576 8.69288 145.87C8.30161 146.16 8.04554 146.525 7.92466 146.963C7.80378 147.4 7.80477 147.908 7.92763 148.486L8.19254 149.733L14.0899 148.479Z" fill="#722F37"/>
<path d="M13.9396 138.216L4.53682 139.204L3.87091 132.868L5.50997 132.696L5.96693 137.044L8.20743 136.808L7.78473 132.786L9.42378 132.614L9.84649 136.636L12.0916 136.4L11.6327 132.034L13.2717 131.861L13.9396 138.216Z" fill="#722F37"/>
<path d="M14.1383 112.118C13.568 112.154 12.9384 112.34 12.2494 112.677C11.5518 113.014 10.8834 113.527 10.2444 114.218C9.60621 114.901 9.17061 115.604 8.93756 116.329L8.39455 116.272C8.29917 115.521 8.05409 114.786 7.65931 114.064C7.25682 113.334 6.74774 112.705 6.13208 112.178C5.50008 111.641 4.85903 111.273 4.20895 111.074L4.26602 110.531C4.70513 110.499 5.16532 110.39 5.6466 110.206C6.11926 110.02 6.58147 109.768 7.03324 109.45C7.47729 109.122 7.88709 108.746 8.26263 108.324C8.81687 107.694 9.20871 107.033 9.43814 106.343L9.98115 106.4C10.0261 106.884 10.1684 107.396 10.408 107.935C10.6485 108.466 10.9487 108.968 11.3085 109.441C11.6597 109.914 12.0406 110.311 12.4512 110.633C13.055 111.106 13.6364 111.42 14.1953 111.575L14.1383 112.118Z" fill="#722F37"/>
<path d="M17.4272 92.3822L8.43543 89.4606L9.58809 85.913C9.80873 85.234 10.1185 84.6939 10.5174 84.2928C10.9144 83.8878 11.3747 83.6313 11.8985 83.5231C12.4203 83.4111 12.9783 83.4517 13.5725 83.6447C14.1696 83.8388 14.6414 84.1344 14.988 84.5318C15.3316 84.9283 15.5382 85.408 15.6077 85.971C15.6781 86.531 15.6011 87.1565 15.3767 87.8472L14.6049 90.2225L13.077 89.7261L13.7489 87.6581C13.8668 87.2952 13.915 86.9775 13.8935 86.7052C13.872 86.4328 13.7807 86.2058 13.6197 86.024C13.4597 85.8393 13.2318 85.699 12.9362 85.6029C12.6377 85.5059 12.3664 85.4841 12.1225 85.5376C11.8796 85.5881 11.666 85.7177 11.4817 85.9264C11.2954 86.1312 11.1428 86.4166 11.0239 86.7824L10.6074 88.0645L18.0449 90.4811L17.4272 92.3822ZM14.913 86.1967L19.7311 85.2915L19.0492 87.3901L14.2468 88.2471L14.913 86.1967Z" fill="#722F37"/>
<path d="M21.7208 80.4329L20.8496 82.3898L13.5399 75.5626L14.5877 73.2093L24.5505 74.0774L23.6792 76.0342L16.0525 75.231L16.0225 75.2984L21.7208 80.4329ZM18.2714 79.0437L20.3293 74.4215L21.7548 75.0561L19.6968 79.6783L18.2714 79.0437Z" fill="#722F37"/>
<path d="M21.7322 59.8668L29.9201 64.5941L29.0568 66.0893L21.8468 66.6762L21.8121 66.7362L26.9655 69.7115L25.9661 71.4427L17.7782 66.7154L18.6553 65.1961L25.8452 64.6349L25.8868 64.563L20.7374 61.59L21.7322 59.8668Z" fill="#722F37"/>
<path d="M26.9384 52.3342L34.5873 57.8914L33.4123 59.5086L25.7634 53.9514L26.9384 52.3342Z" fill="#722F37"/>
<path d="M39.7594 37.4931L41.5914 35.8436L47.7768 38.8221L47.8592 38.7479L45.5436 32.2851L47.3756 30.6355L53.7019 37.6616L52.261 38.959L48.1433 34.3859L48.085 34.4384L50.3535 40.6144L49.3723 41.4979L43.4518 38.5791L43.3935 38.6316L47.5266 43.2219L46.0857 44.5193L39.7594 37.4931Z" fill="#722F37"/>
<path d="M59.4215 27.6352C60.0275 28.4693 60.385 29.2938 60.4939 30.1087C60.6053 30.9217 60.5017 31.6798 60.1833 32.3829C59.8655 33.0817 59.3692 33.6762 58.6944 34.1665C58.0147 34.6603 57.2925 34.9492 56.5279 35.033C55.7633 35.1168 55.0116 34.9801 54.2727 34.6229C53.5339 34.2657 52.8624 33.6713 52.2582 32.8397C51.6521 32.0056 51.2934 31.182 51.182 30.369C51.0707 29.5559 51.1739 28.8 51.4917 28.1012C51.8076 27.3999 52.3055 26.8023 52.9852 26.3084C53.66 25.8182 54.3797 25.5312 55.1443 25.4474C55.9096 25.3593 56.6617 25.4938 57.4005 25.851C58.1418 26.2064 58.8155 26.8011 59.4215 27.6352ZM57.7819 28.8264C57.3894 28.2861 56.9774 27.8893 56.546 27.6359C56.1171 27.3807 55.6874 27.263 55.2568 27.283C54.8262 27.3029 54.4154 27.4549 54.0245 27.7389C53.6336 28.0229 53.3621 28.3666 53.2101 28.7699C53.0581 29.1733 53.0359 29.6193 53.1436 30.1079C53.2538 30.5946 53.5052 31.1082 53.8977 31.6485C54.2903 32.1888 54.701 32.5865 55.1299 32.8418C55.5613 33.0952 55.9923 33.2119 56.4229 33.192C56.8535 33.172 57.2643 33.0201 57.6552 32.7361C58.0461 32.452 58.3175 32.1083 58.4696 31.705C58.6216 31.3016 58.6425 30.8565 58.5323 30.3698C58.4246 29.8812 58.1745 29.3667 57.7819 28.8264Z" fill="#722F37"/>
<path d="M67.9677 27.9744L65.0652 29.6502L60.3379 21.4623L63.2644 19.7727C64.088 19.2972 64.8916 19.0518 65.6753 19.0365C66.4574 19.0185 67.1845 19.2223 67.8568 19.648C68.5316 20.0722 69.1145 20.7094 69.6054 21.5596C70.0978 22.4125 70.3598 23.2386 70.3912 24.0378C70.4253 24.8355 70.2371 25.5714 69.8267 26.2455C69.4189 26.918 68.7993 27.4943 67.9677 27.9744ZM65.9399 27.1675L67.0394 26.5327C67.5511 26.2373 67.9292 25.8981 68.1738 25.5153C68.4194 25.1283 68.5194 24.6921 68.4737 24.2067C68.4292 23.7171 68.2307 23.1671 67.8783 22.5568C67.529 21.9518 67.1542 21.5089 66.7541 21.2282C66.3566 20.9459 65.9309 20.815 65.4771 20.8353C65.0233 20.8557 64.5406 21.0136 64.0288 21.309L62.9254 21.9461L65.9399 27.1675Z" fill="#722F37"/>
<path d="M75.6525 23.8524L71.807 15.2153L77.627 12.624L78.2973 14.1296L74.3035 15.9078L75.2198 17.9659L78.9142 16.321L79.5845 17.8266L75.8901 19.4715L76.8083 21.5338L80.819 19.7481L81.4894 21.2537L75.6525 23.8524Z" fill="#722F37"/>
<path d="M100.537 15.9779C100.327 15.4467 99.9545 14.9055 99.421 14.3544C98.8856 13.7948 98.1906 13.3179 97.3359 12.9237C96.4897 12.5276 95.6859 12.3308 94.9244 12.3331L94.8109 11.7991C95.4954 11.4764 96.1197 11.0159 96.6836 10.4175C97.2542 9.80893 97.6948 9.1305 98.0053 8.38225C98.3207 7.61524 98.4726 6.89184 98.4611 6.21206L98.9951 6.09854C99.1615 6.50619 99.4069 6.91033 99.7313 7.31098C100.054 7.70314 100.436 8.06484 100.879 8.39607C101.328 8.71702 101.812 8.99081 102.329 9.21744C103.1 9.54981 103.849 9.71842 104.577 9.72325L104.69 10.2573C104.244 10.4497 103.801 10.7431 103.362 11.1377C102.932 11.5304 102.547 11.971 102.208 12.4596C101.867 12.9396 101.607 13.4246 101.427 13.9146C101.164 14.6351 101.045 15.285 101.071 15.8644L100.537 15.9779Z" fill="#722F37"/>
</svg>
